# xmcd
#
# Track frame offsets: 
#        150
#        19350
#        38892
#        60012
#        76397
#        93350
#        115810
#        130047
#        145165
#        163822
#
# Disc length: 2419 seconds
#
# Revision: 1
# Processed by: cddbd v1.5.1PL2 Copyright (c) Steve Scherf et al.
# Submitted via: ExactAudioCopy v0.95b3
#
DISCID=7909710a
DTITLE=Inca Son - Music and Dance of the Andes
DYEAR=2003
DGENRE=World
TTITLE0=Free Spirit
TTITLE1=Colors of the Wind
TTITLE2=Valle del Alto
TTITLE3=Unchained Melody
TTITLE4=Besame Mucho
TTITLE5=Pampa Lirima
TTITLE6=And I love Her
TTITLE7=Siboney
TTITLE8=Where Do I Begin
TTITLE9=Dancing Queen
EXTD=
EXTT0=
EXTT1=
EXTT2=
EXTT3=
EXTT4=
EXTT5=
EXTT6=
EXTT7=
EXTT8=
EXTT9=
PLAYORDER=
